<mxfile host="Electron" agent="Mozilla/5.0 (X11; Linux x86_64) AppleWebKit/537.36 (KHTML, like Gecko) draw.io/28.1.2 Chrome/138.0.7204.243 Electron/37.4.0 Safari/537.36" version="28.1.2">
  <diagram name="Página-1" id="JNNobukTDUmdVEI4_yEr">
    <mxGraphModel dx="944" dy="631" grid="1" gridSize="10" guides="1" tooltips="1" connect="1" arrows="1" fold="1" page="1" pageScale="1" pageWidth="827" pageHeight="1169" math="0" shadow="0">
      <root>
        <mxCell id="0" />
        <mxCell id="1" parent="0" />
        <mxCell id="XYHdMVv9o29WyOmpMLez-1" value="&lt;font style=&quot;font-size: 14px;&quot;&gt;&lt;strong style=&quot;&quot; id=&quot;yui_3_17_2_1_1758032268555_20&quot;&gt;Descripción:&lt;/strong&gt; Luz &lt;br&gt;tiene una tienda de ropa que ha crecido mucho últimamente, y ahora le &lt;br&gt;cuesta llevar un control manual de los productos que tiene en &lt;br&gt;inventario. Quiere una aplicación que le permita gestionar el inventario&lt;br&gt; de su tienda. Quiere registrar los productos que tiene, como las &lt;br&gt;camisetas, pantalones y vestidos, y necesita saber cuántas unidades hay &lt;br&gt;de cada uno. También quiere registrar de qué talla y color son, y cuánto&lt;br&gt; cuestan. Además, le gustaría llevar un registro de las ventas que hace:&lt;br&gt; qué productos ha vendido, cuántas unidades y a quién se lo vendió &lt;br&gt;(porque tiene clientes frecuentes). Sería ideal que la app le permitiera&lt;br&gt; ver informes para saber cuáles son los productos más vendidos y cuáles &lt;br&gt;son los que menos se venden, así puede decidir qué reponer en el &lt;br&gt;inventario.&lt;/font&gt;" style="text;whiteSpace=wrap;html=1;" vertex="1" parent="1">
          <mxGeometry width="470" height="230" as="geometry" />
        </mxCell>
        <mxCell id="XYHdMVv9o29WyOmpMLez-3" value="&lt;p id=&quot;yui_3_17_2_1_1758032268555_25&quot;&gt;&lt;strong&gt;&lt;font style=&quot;font-size: 14px;&quot;&gt;Puntos clave:&lt;/font&gt;&lt;/strong&gt;&lt;/p&gt;&lt;font style=&quot;font-size: 14px;&quot;&gt;&lt;br&gt;&lt;/font&gt;&lt;ul&gt;&lt;font style=&quot;font-size: 14px;&quot;&gt;&lt;br&gt;&lt;/font&gt;&lt;li&gt;&lt;font style=&quot;font-size: 14px;&quot;&gt;Productos con características como nombre, talla, color, precio.&lt;/font&gt;&lt;/li&gt;&lt;font style=&quot;font-size: 14px;&quot;&gt;&lt;br&gt;&lt;/font&gt;&lt;li&gt;&lt;font style=&quot;font-size: 14px;&quot;&gt;Control de inventario (cantidad disponible).&lt;/font&gt;&lt;/li&gt;&lt;font style=&quot;font-size: 14px;&quot;&gt;&lt;br&gt;&lt;/font&gt;&lt;li&gt;&lt;font style=&quot;font-size: 14px;&quot;&gt;Registro de ventas (cliente, fecha, producto vendido, cantidad, precio de venta).&lt;/font&gt;&lt;/li&gt;&lt;font style=&quot;font-size: 14px;&quot;&gt;&lt;br&gt;&lt;/font&gt;&lt;li&gt;&lt;font style=&quot;font-size: 14px;&quot;&gt;Informes de productos más vendidos.&lt;/font&gt;&lt;/li&gt;&lt;br&gt;&lt;/ul&gt;" style="text;whiteSpace=wrap;html=1;" vertex="1" parent="1">
          <mxGeometry x="470" width="500" height="230" as="geometry" />
        </mxCell>
      </root>
    </mxGraphModel>
  </diagram>
</mxfile>
